<svg xmlns="http://www.w3.org/2000/svg" viewBox="0 0 841.9 595.3" id="Gecko_Apple_Logo" ><path id="Stem" d="M99.92,62.46c-2.21-7.67,4.24-34.86,16.39-36,4.42-.41,6.22,2.43,6,3.76s-3.39-.33-7.95,2.65c-10,6.52-8.24,28.65-9,32.09C105,67,100.4,64.12,99.92,62.46Z" transform="translate(-6.56 -25.95)" style="fill:#33291d;stroke:#000;stroke-miterlimit:10"/><path id="Apple" d="M101.58,64.68c3.07-1,1.73-26.52-43.57-18.22-15.15,3.94-38.17,21.29-36.4,65.06,6.68,37.84,17.14,31.81,25.7,51.67,3.07,11.23,20.18,26.83,42.59,6,6.43,4.4,6.14,10.41,27.44,8.39,3.6-.79,7.63-1.24,13.84-4.93,27.49-16.66,37.22-42.1,37.51-60.94C174.39,37.81,118.62,46.15,101.58,64.68Z" transform="translate(-6.56 -25.95)" style="fill:#dd0a28;stroke:#000;stroke-miterlimit:10"/><path id="Apple_Shadow" data-name="Apple Shadow" d="M101.06,64.28c2.46-.82,2.59-16.83-21.16-18.85A80.35,80.35,0,0,0,58,47.13c-11.14,2.23-26,12.59-32.59,34.5a84.64,84.64,0,0,0-3.35,29.78c6.68,37.84,17.39,32,25.95,51.9,2.63,9.61,15.95,21.86,33,12.54a93.65,93.65,0,0,0,8.9-7.45c5.17,4.79,8.49,7.54,10.61,7.85,6,2.24,12.43,1.11,13.31,1.06s-12.52-.28-17.37-7.5c-1.54-2.42-1.13-6.87-1.13-6.87a87,87,0,0,1-10.93,7.93c-6.13,3.35-17.52,4.43-22.33,1.38-8.17-3.15-6.57-15.39-7.29-24-.26-3.09-27.43-18.83-26.67-22.27.08-.37,2.14-1.51,5.58-.68,2.09.78,3.42,2,6,3a25.69,25.69,0,0,1,8,4.54c4.49,5.22,7,2.09,7,2.09.6-1.91,0-2.46.31-4.55.07-.51-10.65-2.45-8.35-5.69.84-1.19,6.89-1.15,12.06-1.32,3.6.85,6.49,0,7.51-1.24,1.2-2,.17-1.16.78-3.18.11-.36-15.94-.12-15.81-.49,9.71-5.25,11.59-5,12.79-8.44.7-3.11-19.72,6.88-20.49,4.1-.49-.91,2.34-12.64,3.57-13.49,1.86-2.32,16.51-2,18.94-4.1,2-7.15-.45-39.48.58-47.35C72.75,47,96.5,46.83,101.06,64.28Z" transform="translate(-6.56 -25.95)" style="fill:#c10c2f"/><path id="Tail_shadow" data-name="Tail shadow" d="M160.13,67s-16.75,0-42.87,8.38C99.49,82.63,93.78,92.9,91.88,97.13c-4,12.08.38,26.5,3.43,32.13,13.2,22.63,30.45,21,35.2,19.38-22.87-10-24.37-15.87-24.37-15.87L101.25,102Z" transform="translate(-6.56 -25.95)" style="fill:#c10c2f"/><path d="M95.65,163.31l-5.76,5.79" transform="translate(-6.56 -25.95)" style="fill:#fff;stroke:#000;stroke-linecap:round;stroke-linejoin:round"/><path d="M60.85,44.14C58,47.19,47,37,49.79,33.92A7.53,7.53,0,1,1,60.85,44.14Z" transform="translate(-6.56 -25.95)" style="fill:#6c648b;stroke:#020202;stroke-miterlimit:10;stroke-width:0.25px"/><path d="M20.2,79.41C10.32,70.79,5.9,65.56,7.32,56.84S20.4,40.26,27.5,36.67c6.72-3.4,17-5.8,24.52-2.34,8.34,3.85,11.53,9,16,19.57C72.75,65,77.9,88.71,65.72,96.08,54.5,98,36.9,93.66,20.2,79.41Z" transform="translate(-6.56 -25.95)" style="fill:#06bbaa;stroke:#000;stroke-miterlimit:10"/><path id="Tail" d="M144,163.11c-.95,2.61,37.12-14.18,43.82-46.14,1.56-7.45,3.34-27.14-6.22-37.28-6.48-6.88-11.43-11.33-21.52-11.92-11.23-.66-38.45,5.12-51.77,16-12.58,10.29-16.5,31.35-8.19,47.55,6.37,12.43,22.83,20.42,33.65,16.35,12.07-3.41,12.26-11.08,11-12.77-2.13-2.87-6.06-4.49-9.61-.78-3,3.15-.39,8.25-2.13,8.89-5.23,1.92-23.81-9.52-23.3-22.91.49-12.92,14.74-21.11,24.68-23.4,2.7-.62,17.58-3.69,26,5.13,8.68,9.13,5.11,25,1.92,34.62C156,155.3,144.57,161.44,144,163.11Z" transform="translate(-6.56 -25.95)" style="fill:#6bbaa7;stroke:#000;stroke-miterlimit:10"/><path d="M20.2,115.88c2-2.1,10.79,6.2,16.67,2.88a7.41,7.41,0,0,0,2.88-3.21c2.41-5-1-11.29.75-12.74,1.07-.88,4-1.48,5.16.4,1.86,3.08-3.82,11.62-1.74,11.06a40.26,40.26,0,0,0,9.75-4.05c.53-.59.48-2.79,5.34-4.37,1.29-.37,8.36,2.49,2.49,5.87-2.49.53-2.73,1.25-6,2.55-6.76,2.68-9.85,3.3-9.94,4.17-.12,1.27,5.48.53,11.52.22,3.46-.17,4.23-2.31,6.42-2.79,3.54-.78,5.08,1.67,3.18,5.27-.57,1.09-5.16,2-7.65.53-11.5,1.21-13.13.16-13.47,1.51-.25,1,1.44,3.76,1.9,4,3.47,1.86,6.44,1.48,7.38,2.46,2.41,2.52-.08,6.61-3.85,4.81-.61-.29-1.08-1.82-5.31-4.6-5.08-3.34-5.91-2.87-9.11-4.69-5.48-3.11-11,1.5-15.06-1.89C19.07,121.25,19.16,117,20.2,115.88Z" transform="translate(-6.56 -25.95)" style="fill:#6bbaa7;stroke:#000;stroke-miterlimit:10"/><circle cx="16.74" cy="35.76" r="7.94" style="fill:#fff;stroke:#000;stroke-miterlimit:10"/><ellipse cx="18.6" cy="35.85" rx="5.43" ry="6.43" style="fill:#6c648b;stroke:#3d3956;stroke-miterlimit:10"/><path d="M25.17,68.23A92.58,92.58,0,0,0,24,55.77S21.5,63.31,25.17,68.23Z" transform="translate(-6.56 -25.95)" style="stroke:#020202;stroke-linecap:round;stroke-linejoin:round;stroke-width:0.25px"/><path d="M49.6,33.93s-6.84-2.18-13.26.82C25,37.42,17.79,44,15.58,46.83c-1.92,2.42,1.71,2.79,5.42,3,.55.09-12.92,1-10.87,11.31.13,4.08,7.08,14.44,24.42,27.56C28.88,86,11.38,73.21,8.71,65.58,4.5,54.88,11.63,49.13,15.63,45.24a51.32,51.32,0,0,1,15-9.49C33.24,35,40.75,31.3,49.6,33.93Z" transform="translate(-6.56 -25.95)" style="fill:#078979"/><path d="M141.81,95.23s1.35-.77,7.77-.23a23.34,23.34,0,0,1,9.54,3.42c4.23,2.42,5.88,7.92,6.63,11.6.33,2.1.42,6.06.42,6.06a22.41,22.41,0,0,0-4.42-13.33C158.39,98.47,152.47,94.88,141.81,95.23Z" transform="translate(-6.56 -25.95)" style="fill:#078979"/><path d="M118.33,27a14.72,14.72,0,0,0-6.8,3.28C108.44,32.64,105,40.5,105,40.5c-1.48,3.37-2.73,8.39-4.06,14.38l-1-1.37c1.38-5,2.9-11.14,4.25-13.76a28.34,28.34,0,0,1,6.09-9.66S113.63,26.31,118.33,27Z" transform="translate(-6.56 -25.95)" style="fill:#110e0a"/><ellipse cx="19.15" cy="31.98" rx="1.6" ry="1.38" style="fill:#e4e1f9"/><circle cx="18.61" cy="34.94" r="0.54" style="fill:#e4e1f9"/></svg>